<?xml version="1.0" encoding="UTF-8"?>
<svg id="Calque_1" data-name="Calque 1" xmlns="http://www.w3.org/2000/svg" xmlns:xlink="http://www.w3.org/1999/xlink" viewBox="0 0 1080 1080">
  <defs>
    <style>
      .cls-1 {
        fill: none;
      }

      .cls-2 {
        opacity: .1;
      }

      .cls-2, .cls-3, .cls-4 {
        fill: #fff;
      }

      .cls-5 {
        clip-path: url(#clippath);
      }

      .cls-4 {
        opacity: .3;
      }
    </style>
    <clipPath id="clippath">
      <polygon class="cls-1" points="657.82 176.26 179.82 176.26 179.82 417.26 657.82 417.26 657.82 930.26 933.82 930.26 933.82 417.26 933.82 176.26 657.82 176.26"/>
    </clipPath>
  </defs>
  <g class="cls-5">
    <g>
      <g id="_Répétition_radiale_" data-name="&amp;lt;Répétition radiale&amp;gt;">
        <g>
          <path class="cls-3" d="m525.04,652.12s0,.01-.01.02"/>
          <g>
            <path class="cls-3" d="m511.97,768.81c1.79,4.48,3.87,8.81,6.24,12.98,9.74,17.06,23.23,30.4,40.5,40.03,17.27,9.63,37.21,14.44,59.82,14.44s42.54-4.82,59.81-14.44c17.27-9.63,30.82-22.97,40.66-40.03,9.84-17.06,14.76-36.79,14.76-59.18,0-22.19-4.91-41.87-14.76-59.02-9.84-17.17-23.39-30.56-40.66-40.19-9.25-5.15-19.26-8.92-30.04-11.32l-24.47,29.07c13.55.69,25.71,4.07,36.46,10.19,12.14,6.91,21.66,16.48,28.57,28.73,6.91,12.25,10.36,26.42,10.36,42.54s-3.45,30.3-10.36,42.55c-6.91,12.24-16.43,21.82-28.57,28.73-12.14,6.91-26.06,10.36-41.76,10.36s-29.62-3.45-41.76-10.36c-10.89-6.2-19.59-14.57-26.19-25.07h-38.61Z"/>
            <path class="cls-4" d="m543.35,755.7c-3.87-9.94-5.85-20.96-5.85-33.1,0-15.4,3.11-29.02,9.31-40.89l-22.88-28.09c-2.28,3.16-4.4,6.48-6.37,9.95-9.73,17.16-14.6,36.84-14.6,59.02,0,11.77,1.35,22.81,4.04,33.1h36.34Z"/>
            <path class="cls-2" d="m553.4,671.34c6.09-8.16,13.65-14.84,22.73-20.01,8.96-5.1,18.92-8.27,29.83-9.59l26.97-32.04c-4.88-.5-9.89-.76-15.05-.76-22.6,0-42.54,4.82-59.82,14.44-10.19,5.68-19.06,12.68-26.63,20.99l21.96,26.96Z"/>
          </g>
          <polygon class="cls-3" points="612.41 759.02 475.62 759.61 475.65 765.49 665.86 764.66 665.83 758.79 619.74 758.99 571.34 698.73 667.42 582.66 663.29 579.15 567.8 694.34 477.19 580.55 472.81 584.09 612.41 759.02"/>
        </g>
      </g>
      <g id="_Répétition_radiale_-2" data-name="&amp;lt;Répétition radiale&amp;gt;">
        <g>
          <path class="cls-3" d="m450.91,556.6s-.02,0-.02,0"/>
          <g>
            <path class="cls-3" d="m359.15,629.87c-1.9,4.44-3.5,8.97-4.76,13.59-5.18,18.95-5.07,37.93.33,56.94,5.41,19.02,16.1,36.53,32.08,52.51s33.49,26.68,52.51,32.08c19.02,5.4,38.04,5.55,57.06.45,19.02-5.11,36.45-15.58,52.28-31.42,15.69-15.69,26.13-33.08,31.3-52.17,5.18-19.09,5.07-38.15-.33-57.17-2.89-10.18-7.31-19.93-13.24-29.24l-37.86,3.25c9.09,10.07,15.3,21.06,18.58,32.99,3.7,13.47,3.66,26.97-.11,40.52-3.78,13.54-11.36,26.01-22.76,37.41s-23.87,18.98-37.41,22.76c-13.54,3.77-27.05,3.81-40.52.11-13.47-3.7-25.76-11.1-36.85-22.2-11.1-11.1-18.5-23.39-22.2-36.85-3.32-12.08-3.55-24.16-.79-36.24l-27.3-27.3Z"/>
            <path class="cls-4" d="m390.61,642.79c4.3-9.76,10.69-18.96,19.27-27.54,10.89-10.89,22.72-18.32,35.49-22.33l3.68-36.04c-3.85.63-7.69,1.47-11.54,2.53-19.02,5.25-36.37,15.72-52.06,31.41-8.32,8.32-15.17,17.08-20.55,26.26l25.7,25.7Z"/>
            <path class="cls-2" d="m457.37,590.24c10.07-1.46,20.15-.84,30.22,1.92,9.94,2.73,19.23,7.54,27.88,14.31l41.73-3.58c-3.09-3.8-6.46-7.53-10.1-11.17-15.98-15.98-33.49-26.68-52.51-32.08-11.22-3.19-22.45-4.51-33.67-3.99l-3.54,34.59Z"/>
          </g>
          <polygon class="cls-3" points="437.09 693.97 339.95 597.66 335.82 601.83 470.9 735.75 475.04 731.58 442.31 699.13 450.69 622.3 600.7 608.16 600.26 602.76 451.29 616.69 467.68 472.16 462.08 471.56 437.09 693.97"/>
        </g>
      </g>
      <g id="_Répétition_radiale_-3" data-name="&amp;lt;Répétition radiale&amp;gt;">
        <g>
          <path class="cls-3" d="m466.03,436.64s-.01,0-.02-.01"/>
          <g>
            <path class="cls-3" d="m349.35,423.56c-4.48,1.79-8.81,3.87-12.98,6.24-17.06,9.74-30.4,23.23-40.03,40.5-9.63,17.27-14.44,37.21-14.44,59.82s4.82,42.54,14.44,59.81c9.63,17.27,22.97,30.82,40.03,40.66,17.06,9.84,36.79,14.76,59.18,14.76,22.19,0,41.87-4.91,59.02-14.76,17.17-9.84,30.56-23.39,40.19-40.66,5.15-9.25,8.92-19.26,11.32-30.04l-29.07-24.47c-.69,13.55-4.07,25.71-10.19,36.46-6.91,12.14-16.48,21.66-28.73,28.57-12.25,6.91-26.42,10.36-42.54,10.36s-30.3-3.45-42.55-10.36c-12.24-6.91-21.82-16.43-28.73-28.57-6.91-12.14-10.36-26.06-10.36-41.76s3.45-29.62,10.36-41.76c6.2-10.89,14.57-19.59,25.07-26.19v-38.61Z"/>
            <path class="cls-4" d="m362.45,454.95c9.94-3.87,20.96-5.85,33.1-5.85,15.4,0,29.02,3.11,40.89,9.31l28.09-22.88c-3.16-2.28-6.48-4.4-9.95-6.37-17.16-9.73-36.84-14.6-59.02-14.6-11.77,0-22.81,1.35-33.1,4.04v36.34Z"/>
            <path class="cls-2" d="m446.82,464.99c8.16,6.09,14.84,13.65,20.01,22.73,5.1,8.96,8.27,18.92,9.59,29.83l32.04,26.97c.5-4.88.76-9.89.76-15.05,0-22.6-4.82-42.54-14.44-59.82-5.68-10.19-12.68-19.06-20.99-26.63l-26.96,21.96Z"/>
          </g>
          <polygon class="cls-3" points="359.13 524 358.54 387.22 352.67 387.24 353.49 577.45 359.36 577.43 359.16 531.34 419.42 482.94 535.5 579.02 539 574.89 423.81 479.4 537.61 388.79 534.06 384.4 359.13 524"/>
        </g>
      </g>
      <g id="_Répétition_radiale_-4" data-name="&amp;lt;Répétition radiale&amp;gt;">
        <g>
          <path class="cls-3" d="m561.55,362.51s0-.02,0-.02"/>
          <g>
            <path class="cls-3" d="m488.29,270.75c-4.44-1.9-8.97-3.5-13.59-4.76-18.95-5.18-37.93-5.07-56.94.33-19.02,5.41-36.53,16.1-52.51,32.08s-26.68,33.49-32.08,52.51c-5.4,19.02-5.55,38.04-.45,57.06,5.11,19.02,15.58,36.45,31.42,52.28,15.69,15.69,33.08,26.13,52.17,31.3,19.09,5.18,38.15,5.07,57.17-.33,10.18-2.89,19.93-7.31,29.24-13.24l-3.25-37.86c-10.07,9.09-21.06,15.3-32.99,18.58-13.47,3.7-26.97,3.66-40.52-.11-13.54-3.78-26.01-11.36-37.41-22.76s-18.98-23.87-22.76-37.41c-3.77-13.54-3.81-27.05-.11-40.52,3.7-13.47,11.1-25.76,22.2-36.85,11.1-11.1,23.39-18.5,36.85-22.2,12.08-3.32,24.16-3.55,36.24-.79l27.3-27.3Z"/>
            <path class="cls-4" d="m475.36,302.21c9.76,4.3,18.96,10.69,27.54,19.27,10.89,10.89,18.32,22.72,22.33,35.49l36.04,3.68c-.63-3.85-1.47-7.69-2.53-11.54-5.25-19.02-15.72-36.37-31.41-52.06-8.32-8.32-17.08-15.17-26.26-20.55l-25.7,25.7Z"/>
            <path class="cls-2" d="m527.91,368.97c1.46,10.07.84,20.15-1.92,30.22-2.73,9.94-7.54,19.23-14.31,27.88l3.58,41.73c3.8-3.09,7.53-6.46,11.17-10.1,15.98-15.98,26.68-33.49,32.08-52.51,3.19-11.22,4.51-22.45,3.99-33.67l-34.59-3.54Z"/>
          </g>
          <polygon class="cls-3" points="424.19 348.69 520.49 251.55 516.32 247.42 382.4 382.5 386.57 386.63 419.02 353.9 495.85 362.29 510 512.3 515.39 511.86 501.46 362.89 646 379.28 646.59 373.68 424.19 348.69"/>
        </g>
      </g>
      <g id="_Répétition_radiale_-5" data-name="&amp;lt;Répétition radiale&amp;gt;">
        <g>
          <path class="cls-3" d="m681.52,377.63s0-.01.01-.02"/>
          <g>
            <path class="cls-3" d="m694.59,260.94c-1.79-4.48-3.87-8.81-6.24-12.98-9.74-17.06-23.23-30.4-40.5-40.03-17.27-9.63-37.21-14.44-59.82-14.44s-42.54,4.82-59.81,14.44c-17.27,9.63-30.82,22.97-40.66,40.03-9.84,17.06-14.76,36.79-14.76,59.18,0,22.19,4.91,41.87,14.76,59.02,9.84,17.17,23.39,30.56,40.66,40.19,9.25,5.15,19.26,8.92,30.04,11.32l24.47-29.07c-13.55-.69-25.71-4.07-36.46-10.19-12.14-6.91-21.66-16.48-28.57-28.73-6.91-12.25-10.36-26.42-10.36-42.54s3.45-30.3,10.36-42.55c6.91-12.24,16.43-21.82,28.57-28.73,12.14-6.91,26.06-10.36,41.76-10.36s29.62,3.45,41.76,10.36c10.89,6.2,19.59,14.57,26.19,25.07h38.61Z"/>
            <path class="cls-4" d="m663.2,274.05c3.87,9.94,5.85,20.96,5.85,33.1,0,15.4-3.11,29.02-9.31,40.89l22.88,28.09c2.28-3.16,4.4-6.48,6.37-9.95,9.73-17.16,14.6-36.84,14.6-59.02,0-11.77-1.35-22.81-4.04-33.1h-36.34Z"/>
            <path class="cls-2" d="m653.16,358.41c-6.09,8.16-13.65,14.84-22.73,20.01-8.96,5.1-18.92,8.27-29.83,9.59l-26.97,32.04c4.88.5,9.89.76,15.05.76,22.6,0,42.54-4.82,59.82-14.44,10.19-5.68,19.06-12.68,26.63-20.99l-21.96-26.96Z"/>
          </g>
          <polygon class="cls-3" points="594.15 270.73 730.94 270.14 730.91 264.27 540.7 265.09 540.73 270.96 586.81 270.76 635.21 331.02 539.14 447.09 543.27 450.6 638.75 335.41 729.36 449.2 733.75 445.66 594.15 270.73"/>
        </g>
      </g>
      <g id="_Répétition_radiale_-6" data-name="&amp;lt;Répétition radiale&amp;gt;">
        <g>
          <path class="cls-3" d="m755.65,473.15s.02,0,.02,0"/>
          <g>
            <path class="cls-3" d="m847.4,399.89c1.9-4.44,3.5-8.97,4.76-13.59,5.18-18.95,5.07-37.93-.33-56.94-5.41-19.02-16.1-36.53-32.08-52.51s-33.49-26.68-52.51-32.08c-19.02-5.4-38.04-5.55-57.06-.45-19.02,5.11-36.45,15.58-52.28,31.42-15.69,15.69-26.13,33.08-31.3,52.17-5.18,19.09-5.07,38.15.33,57.17,2.89,10.18,7.31,19.93,13.24,29.24l37.86-3.25c-9.09-10.07-15.3-21.06-18.58-32.99-3.7-13.47-3.66-26.97.11-40.52,3.78-13.54,11.36-26.01,22.76-37.41s23.87-18.98,37.41-22.76c13.54-3.77,27.05-3.81,40.52-.11,13.47,3.7,25.76,11.1,36.85,22.2,11.1,11.1,18.5,23.39,22.2,36.85,3.32,12.08,3.55,24.16.79,36.24l27.3,27.3Z"/>
            <path class="cls-4" d="m815.94,386.96c-4.3,9.76-10.69,18.96-19.27,27.54-10.89,10.89-22.72,18.32-35.49,22.33l-3.68,36.04c3.85-.63,7.69-1.47,11.54-2.53,19.02-5.25,36.37-15.72,52.06-31.41,8.32-8.32,15.17-17.08,20.55-26.26l-25.7-25.7Z"/>
            <path class="cls-2" d="m749.19,439.51c-10.07,1.46-20.15.84-30.22-1.92-9.94-2.73-19.23-7.54-27.88-14.31l-41.73,3.58c3.09,3.8,6.46,7.53,10.1,11.17,15.98,15.98,33.49,26.68,52.51,32.08,11.22,3.19,22.45,4.51,33.67,3.99l3.54-34.59Z"/>
          </g>
          <polygon class="cls-3" points="769.46 335.78 866.6 432.09 870.74 427.92 735.65 294 731.52 298.17 764.25 330.62 755.86 407.45 605.85 421.59 606.29 426.99 755.27 413.06 738.87 557.59 744.48 558.19 769.46 335.78"/>
        </g>
      </g>
      <g id="_Répétition_radiale_-7" data-name="&amp;lt;Répétition radiale&amp;gt;">
        <g>
          <path class="cls-3" d="m740.52,593.11s.01,0,.02.01"/>
          <g>
            <path class="cls-3" d="m857.21,606.19c4.48-1.79,8.81-3.87,12.98-6.24,17.06-9.74,30.4-23.23,40.03-40.5,9.63-17.27,14.44-37.21,14.44-59.82s-4.82-42.54-14.44-59.81c-9.63-17.27-22.97-30.82-40.03-40.66-17.06-9.84-36.79-14.76-59.18-14.76-22.19,0-41.87,4.91-59.02,14.76-17.17,9.84-30.56,23.39-40.19,40.66-5.15,9.25-8.92,19.26-11.32,30.04l29.07,24.47c.69-13.55,4.07-25.71,10.19-36.46,6.91-12.14,16.48-21.66,28.73-28.57,12.25-6.91,26.42-10.36,42.54-10.36s30.3,3.45,42.55,10.36c12.24,6.91,21.82,16.43,28.73,28.57,6.91,12.14,10.36,26.06,10.36,41.76s-3.45,29.62-10.36,41.76c-6.2,10.89-14.57,19.59-25.07,26.19v38.61Z"/>
            <path class="cls-4" d="m844.11,574.8c-9.94,3.87-20.96,5.85-33.1,5.85-15.4,0-29.02-3.11-40.89-9.31l-28.09,22.88c3.16,2.28,6.48,4.4,9.95,6.37,17.16,9.73,36.84,14.6,59.02,14.6,11.77,0,22.81-1.35,33.1-4.04v-36.34Z"/>
            <path class="cls-2" d="m759.74,564.76c-8.16-6.09-14.84-13.65-20.01-22.73-5.1-8.96-8.27-18.92-9.59-29.83l-32.04-26.97c-.5,4.88-.76,9.89-.76,15.05,0,22.6,4.82,42.54,14.44,59.82,5.68,10.19,12.68,19.06,20.99,26.63l26.96-21.96Z"/>
          </g>
          <polygon class="cls-3" points="847.42 505.75 848.02 642.53 853.89 642.51 853.06 452.3 847.19 452.32 847.39 498.41 787.13 546.81 671.06 450.74 667.55 454.87 782.75 550.35 668.95 640.96 672.49 645.35 847.42 505.75"/>
        </g>
      </g>
      <g id="_Répétition_radiale_-8" data-name="&amp;lt;Répétition radiale&amp;gt;">
        <g>
          <path class="cls-3" d="m645,667.24s0,.02,0,.02"/>
          <g>
            <path class="cls-3" d="m718.27,759c4.44,1.9,8.97,3.5,13.59,4.76,18.95,5.18,37.93,5.07,56.94-.33,19.02-5.41,36.53-16.1,52.51-32.08s26.68-33.49,32.08-52.51c5.4-19.02,5.55-38.04.45-57.06-5.11-19.02-15.58-36.45-31.42-52.28-15.69-15.69-33.08-26.13-52.17-31.3-19.09-5.18-38.15-5.07-57.17.33-10.18,2.89-19.93,7.31-29.24,13.24l3.25,37.86c10.07-9.09,21.06-15.3,32.99-18.58,13.47-3.7,26.97-3.66,40.52.11,13.54,3.78,26.01,11.36,37.41,22.76s18.98,23.87,22.76,37.41c3.77,13.54,3.81,27.05.11,40.52-3.7,13.47-11.1,25.76-22.2,36.85-11.1,11.1-23.39,18.5-36.85,22.2-12.08,3.32-24.16,3.55-36.24.79l-27.3,27.3Z"/>
            <path class="cls-4" d="m731.19,727.54c-9.76-4.3-18.96-10.69-27.54-19.27-10.89-10.89-18.32-22.72-22.33-35.49l-36.04-3.68c.63,3.85,1.47,7.69,2.53,11.54,5.25,19.02,15.72,36.37,31.41,52.06,8.32,8.32,17.08,15.17,26.26,20.55l25.7-25.7Z"/>
            <path class="cls-2" d="m678.64,660.78c-1.46-10.07-.84-20.15,1.92-30.22,2.73-9.94,7.54-19.23,14.31-27.88l-3.58-41.73c-3.8,3.09-7.53,6.46-11.17,10.1-15.98,15.98-26.68,33.49-32.08,52.51-3.19,11.22-4.51,22.45-3.99,33.67l34.59,3.54Z"/>
          </g>
          <polygon class="cls-3" points="782.37 681.06 686.07 778.2 690.24 782.33 824.15 647.25 819.98 643.12 787.53 675.85 710.7 667.46 696.56 517.45 691.16 517.89 705.09 666.87 560.56 650.47 559.96 656.08 782.37 681.06"/>
        </g>
      </g>
    </g>
  </g>
  <g>
    <path class="cls-3" d="m631.07,495.21c0,27.28-22.18,49.46-49.46,49.46s-49.46-22.18-49.46-49.46,22.18-49.46,49.46-49.46,49.46,22.18,49.46,49.46Zm-96,0c0,25.53,20.86,46.39,46.54,46.39s46.54-20.86,46.54-46.39-20.86-46.4-46.54-46.4-46.54,20.86-46.54,46.4Z"/>
    <path class="cls-3" d="m581.17,594.41l-23.93-30.05h-22.91v-2.92h94.54v2.92h-67.99l69.01,87.25-2.19,1.75-44.79-56.75-47.71,57.05-2.04-1.75,48-57.48Z"/>
    <path class="cls-3" d="m534.05,764.37l-1.17-2.48,19.99-9.77v-72.66l-19.99-9.77,1.17-2.48,96.29,47.27v2.63l-96.29,47.27Zm21.59-83.45v69.74l71.05-34.87-71.05-34.87Z"/>
    <path class="cls-3" d="m534.34,781.43v-2.92h94.54v2.92h-94.54Z"/>
    <path class="cls-3" d="m181.54,478.39c3.23-7.95,6.49-14.25,9.77-18.92,3.28-4.66,6.86-8.01,10.74-10.05,3.88-2.03,8.41-3.05,13.58-3.05,2.4,0,4.39.23,5.96.69v13.86c-.37-.09-.86-.16-1.46-.21-.6-.05-1.23-.07-1.87-.07-4.62,0-8.55,1.62-11.78,4.85s-6.47,8.73-9.7,16.49l-11.92,29.24c-3.24,7.95-6.52,14.28-9.84,18.99-3.33,4.71-7,8.09-11.02,10.12-4.02,2.03-8.8,3.05-14.35,3.05-1.38,0-2.73-.09-4.02-.28-1.29-.19-2.45-.42-3.46-.69v-13.86c1.29.37,2.86.55,4.71.55,5.17,0,9.47-1.61,12.89-4.85,3.42-3.23,6.7-8.78,9.84-16.63l11.92-29.25Z"/>
    <path class="cls-3" d="m258.32,460.79h-28.14v-13.72h70.96v13.72h-28.14v81.91h-14.69v-81.91Z"/>
    <path class="cls-3" d="m314.04,447.06h14.83v61.54c0,7.3,1.64,12.84,4.92,16.63,3.28,3.79,8.02,5.68,14.21,5.68s10.9-1.89,14.14-5.68c3.23-3.79,4.85-9.33,4.85-16.63v-61.54h14.83v62.51c0,11.46-2.89,20.24-8.66,26.33-5.78,6.1-14.16,9.15-25.15,9.15s-19.4-3.05-25.23-9.15c-5.82-6.1-8.73-14.88-8.73-26.33v-62.51Z"/>
    <path class="cls-3" d="m402.05,447.06h26.89c11.18,0,20.74,1.89,28.69,5.68,7.95,3.79,14.02,9.24,18.23,16.36,4.2,7.12,6.31,15.71,6.31,25.78s-2.1,18.55-6.31,25.71c-4.21,7.16-10.28,12.64-18.23,16.42-7.95,3.79-17.51,5.68-28.69,5.68h-26.89v-95.64Zm28.97,81.91c7.3,0,13.63-1.41,18.99-4.23,5.36-2.82,9.52-6.79,12.47-11.92,2.96-5.13,4.43-11.11,4.43-17.95s-1.48-12.94-4.43-18.02c-2.96-5.08-7.12-9.03-12.47-11.85-5.36-2.82-11.69-4.23-18.99-4.23h-14.14v68.19h14.14Z"/>
    <path class="cls-3" d="m499.07,447.06h14.83v95.64h-14.83v-95.64Z"/>
    <path class="cls-3" d="m537.32,520.94c-4.34-7.57-6.51-16.26-6.51-26.06s2.17-18.59,6.51-26.13c4.34-7.53,10.33-13.42,17.95-17.67,7.62-4.25,16.42-6.38,26.4-6.38s18.78,2.13,26.4,6.38c7.62,4.25,13.58,10.14,17.88,17.67,4.3,7.53,6.44,16.24,6.44,26.13s-2.15,18.48-6.44,26.06c-4.3,7.58-10.26,13.49-17.88,17.74-7.62,4.25-16.43,6.37-26.4,6.37s-18.78-2.13-26.4-6.37c-7.62-4.25-13.61-10.16-17.95-17.74Zm75.33-7.28c3-5.41,4.5-11.66,4.5-18.78s-1.5-13.38-4.5-18.78c-3-5.4-7.18-9.63-12.54-12.68-5.36-3.05-11.5-4.57-18.43-4.57s-13.08,1.52-18.43,4.57c-5.36,3.05-9.56,7.28-12.61,12.68-3.05,5.41-4.57,11.67-4.57,18.78s1.52,13.37,4.57,18.78c3.05,5.4,7.25,9.63,12.61,12.68,5.36,3.05,11.5,4.57,18.43,4.57s13.07-1.52,18.43-4.57c5.36-3.05,9.54-7.28,12.54-12.68Z"/>
  </g>
</svg>